<svg width="70" height="70" viewBox="0 0 70 70" fill="none" xmlns="http://www.w3.org/2000/svg">
<path d="M47.3047 0C46.5497 0 45.9375 0.612227 45.9375 1.36719V7.65625C45.9375 8.41121 46.5497 9.02344 47.3047 9.02344C48.0596 9.02344 48.6719 8.41121 48.6719 7.65625V1.36719C48.6719 0.612227 48.0596 0 47.3047 0Z" fill="white"/>
<path d="M15.8594 42.6562C15.1047 42.6562 14.4922 43.2688 14.4922 44.0234C14.4922 44.7781 15.1047 45.3906 15.8594 45.3906C16.6141 45.3906 17.2266 44.7781 17.2266 44.0234C17.2266 43.2688 16.6141 42.6562 15.8594 42.6562Z" fill="white"/>
<path d="M66.8906 39.4297C66.8906 36.4142 64.4373 33.9609 61.4219 33.9609H51.2155C52.7956 29.9137 53.4352 25.1498 53.3119 20.9092C53.2883 20.1 53.2573 19.632 53.2153 19.3374C53.1446 16.3833 50.719 14 47.75 14C44.7345 14 42.2812 16.4533 42.2812 19.4688V20.8359C42.2812 29.4829 31.1778 34.3412 22.7983 36.4245C22.1647 34.9761 20.7185 33.9609 19.0391 33.9609H5.36719C4.61223 33.9609 4 34.5732 4 35.3281V68.1406C4 68.8956 4.61223 69.5078 5.36719 69.5078H19.0391C20.7073 69.5078 22.1452 68.5061 22.7853 67.073C23.4791 67.251 24.1232 67.4192 24.7178 67.5745C29.4913 68.8212 32.1209 69.5078 38.516 69.5078H53.2188C56.2342 69.5078 58.6875 67.0545 58.6875 64.0391C58.6875 62.9147 58.3461 61.8688 57.7619 60.9987C59.8739 60.26 61.4219 58.2421 61.4219 55.8359C61.4219 54.7157 61.0888 53.6663 60.5064 52.7923C62.6091 52.0524 64.1562 50.0391 64.1562 47.6328C64.1562 46.5084 63.8149 45.4625 63.2307 44.5925C65.3427 43.8538 66.8906 41.8358 66.8906 39.4297ZM20.4062 65.4062C20.4062 66.1601 19.7929 66.7734 19.0391 66.7734H6.73438V36.6953H19.0391C19.7929 36.6953 20.4062 37.3086 20.4062 38.0625V65.4062ZM61.4219 42.1641C58.4894 42.1641 57.7904 42.1641 54.5859 42.1641C53.831 42.1641 53.2188 42.7763 53.2188 43.5312C53.2188 44.2862 53.831 44.8984 54.5859 44.8984H58.6875C60.1952 44.8984 61.4219 46.1251 61.4219 47.6328C61.4219 49.143 60.1977 50.3672 58.6875 50.3672H51.8516C51.0966 50.3672 50.4844 50.9794 50.4844 51.7344C50.4844 52.4893 51.0966 53.1016 51.8516 53.1016H55.9531C57.4429 53.1016 58.6875 54.2917 58.6875 55.8359C58.6875 57.3461 57.4633 58.5703 55.9531 58.5703C53.0206 58.5703 52.3216 58.5703 49.1172 58.5703C48.3622 58.5703 47.75 59.1825 47.75 59.9375C47.75 60.6925 48.3622 61.3047 49.1172 61.3047H53.2188C54.7265 61.3047 55.9531 62.5313 55.9531 64.0391C55.9531 65.5468 54.7265 66.7734 53.2188 66.7734H38.516C32.4721 66.7734 30.1115 66.157 25.4088 64.9288C24.7199 64.7489 23.9642 64.5516 23.1406 64.3416V39.1597C33.0347 36.8029 45.0156 31.0503 45.0156 20.8359V19.4688C45.0156 17.961 46.2423 16.7344 47.75 16.7344C49.255 16.7344 50.4815 17.9591 50.4844 19.4645V19.4688C50.4844 20.0629 51.2259 27.3551 48.2523 33.9609H43.6484C42.8935 33.9609 42.2812 34.5732 42.2812 35.3281C42.2812 36.0831 42.8935 36.6953 43.6484 36.6953C44.6031 36.6953 59.8636 36.6953 61.4219 36.6953C62.9296 36.6953 64.1562 37.922 64.1562 39.4297C64.1562 40.9399 62.9321 42.1641 61.4219 42.1641Z" fill="white"/>
<path d="M15.8594 48.125C15.1044 48.125 14.4922 48.7372 14.4922 49.4922V60.4297C14.4922 61.1846 15.1044 61.7969 15.8594 61.7969C16.6143 61.7969 17.2266 61.1846 17.2266 60.4297V49.4922C17.2266 48.7372 16.6143 48.125 15.8594 48.125Z" fill="white"/>
<path d="M36.3672 17.2266H30.8984C30.1435 17.2266 29.5312 17.8388 29.5312 18.5938C29.5312 19.3487 30.1435 19.9609 30.8984 19.9609H36.3672C37.1221 19.9609 37.7344 19.3487 37.7344 18.5938C37.7344 17.8388 37.1221 17.2266 36.3672 17.2266Z" fill="white"/>
<path d="M63.7109 17.2266H58.2422C57.4872 17.2266 56.875 17.8388 56.875 18.5938C56.875 19.3487 57.4872 19.9609 58.2422 19.9609H63.7109C64.4659 19.9609 65.0781 19.3487 65.0781 18.5938C65.0781 17.8388 64.4659 17.2266 63.7109 17.2266Z" fill="white"/>
<path d="M59.872 6.02641C59.3379 5.49266 58.4725 5.49266 57.9384 6.02641L54.0721 9.89268C53.5382 10.4266 53.5382 11.2923 54.0721 11.8263C54.6062 12.3602 55.4715 12.36 56.0057 11.8263L59.872 7.96002C60.4059 7.42614 60.4059 6.56043 59.872 6.02641Z" fill="white"/>
<path d="M40.5371 9.89268L36.6708 6.02641C36.1368 5.49266 35.2714 5.49266 34.7372 6.02641C34.2034 6.5603 34.2034 7.426 34.7372 7.96002L38.6035 11.8263C39.1378 12.3602 40.0031 12.36 40.5371 11.8263C41.071 11.2924 41.071 10.4267 40.5371 9.89268Z" fill="white"/>
</svg>
