<svg width="12" height="9" viewBox="0 0 12 9" fill="none" xmlns="http://www.w3.org/2000/svg">
<path d="M6.46824 7.83358L11.8083 2.49343C11.9319 2.36992 12 2.20504 12 2.02924C12 1.85343 11.9319 1.68856 11.8083 1.56504L11.4151 1.17178C11.1589 0.915879 10.7425 0.915879 10.4867 1.17178L6.00249 5.65604L1.51326 1.1668C1.38965 1.04329 1.22487 0.975097 1.04916 0.975097C0.873261 0.975097 0.708482 1.04329 0.584775 1.1668L0.191706 1.56007C0.0680971 1.68368 -3.81757e-08 1.84846 -4.58603e-08 2.02426C-5.3545e-08 2.20006 0.0680971 2.36494 0.191706 2.48845L5.53664 7.83358C5.66064 7.95738 5.8262 8.02538 6.00219 8.02499C6.17888 8.02538 6.34434 7.95738 6.46824 7.83358Z" fill="white"/>
</svg>
